<svg xmlns="http://www.w3.org/2000/svg" width="48" height="48" viewBox="0 0 48 48"><defs><style>.a{fill:none;}.b{opacity:0.58;}.c,.d{fill:#00bc87;}.c{fill-rule:evenodd;}</style></defs><rect class="a" width="48" height="48"/><g transform="translate(2 8)"><g class="b" transform="translate(31.34 18.26)"><path class="c" d="M16.67,13.13c2.74,1.86,4.66,4.38,4.66,7.74v6h8v-6C29.33,16.51,22.19,13.93,16.67,13.13Z" transform="translate(-16.67 -13.13)"/></g><g transform="translate(8)"><circle class="d" cx="8" cy="8" r="8"/></g><g class="b" transform="translate(25.34)"><path class="c" d="M16.33,20a8,8,0,0,0,0-16,8.356,8.356,0,0,0-2.66.48,11.96,11.96,0,0,1,0,15.04A8.357,8.357,0,0,0,16.33,20Z" transform="translate(-13.67 -4)"/></g><g transform="translate(0 18)"><path class="c" d="M17,13c-5.34,0-16,2.68-16,8v6H33V21C33,15.68,22.34,13,17,13Z" transform="translate(-1 -13)"/></g></g></svg>