<svg xmlns="http://www.w3.org/2000/svg" width="21.685" height="17.602" viewBox="0 0 21.685 17.602"><defs><style>.a{fill:#00c2ee;}</style></defs><g transform="translate(0)"><path class="a" d="M179.162,299.038a.428.428,0,0,1-.336-.163.435.435,0,0,1-.079-.367l.108-.43a7.552,7.552,0,0,1-1.341.124,1.7,1.7,0,0,0,1.648,2.107.635.635,0,1,0,0-1.271Zm0,0" transform="translate(-169.948 -285.454)"/><path class="a" d="M26.643,272.059c-.234.933-.483,1.931-.672,2.686a2.731,2.731,0,0,0,2.651,3.393,1.552,1.552,0,0,0,1.508-1.179c.172-.688.547-2.187.919-3.675h-.28a7.575,7.575,0,0,1-4.126-1.226Zm0,0" transform="translate(-24.792 -260.536)"/><path class="a" d="M1.338,3.041a7.588,7.588,0,0,1,4.639-1.59H7.361A5.589,5.589,0,0,0,3.616,0H.636A.635.635,0,0,0,.091.962Zm0,0" transform="translate(-0.001)"/><path class="a" d="M11.839,65.961a6.328,6.328,0,0,0-4.3-1.692H5.976A6.339,6.339,0,0,0,.038,68.43.639.639,0,0,0,0,68.647H0a.643.643,0,0,0,.038.217,6.339,6.339,0,0,0,5.939,4.161H7.542a6.328,6.328,0,0,0,4.3-1.692,4.617,4.617,0,0,1,0-5.372Zm-4.4,4.592H4.718a.635.635,0,1,1,0-1.271H7.44a.635.635,0,1,1,0,1.271ZM8.8,68.012H6.079a.635.635,0,0,1,0-1.271H8.8a.635.635,0,0,1,0,1.271Zm0,0" transform="translate(0 -61.548)"/><path class="a" d="M416.189,133.359a1.451,1.451,0,0,0-1.3.816h-1.417v1.271h1.417a1.451,1.451,0,1,0,1.3-2.087Zm0,0" transform="translate(-395.957 -127.711)"/><path class="a" d="M292.557,88.367a3.357,3.357,0,1,0,0,6.714.635.635,0,0,0,.635-.635V89A.635.635,0,0,0,292.557,88.367Zm0,0" transform="translate(-276.951 -84.625)"/></g></svg>