<?xml version="1.0" encoding="UTF-8" standalone="no"?>
<svg
   xmlns:dc="http://purl.org/dc/elements/1.1/"
   xmlns:cc="http://creativecommons.org/ns#"
   xmlns:rdf="http://www.w3.org/1999/02/22-rdf-syntax-ns#"
   xmlns:svg="http://www.w3.org/2000/svg"
   xmlns="http://www.w3.org/2000/svg"
   xmlns:sodipodi="http://sodipodi.sourceforge.net/DTD/sodipodi-0.dtd"
   xmlns:inkscape="http://www.inkscape.org/namespaces/inkscape"
   inkscape:version="1.0 (4035a4fb49, 2020-05-01)"
   sodipodi:docname="toggle_on.svg"
   id="svg6"
   version="1.1"
   width="24"
   viewBox="0 0 24 24"
   height="24">
  <metadata
     id="metadata12">
    <rdf:RDF>
      <cc:Work
         rdf:about="">
        <dc:format>image/svg+xml</dc:format>
        <dc:type
           rdf:resource="http://purl.org/dc/dcmitype/StillImage" />
      </cc:Work>
    </rdf:RDF>
  </metadata>
  <defs
     id="defs10" />
  <sodipodi:namedview
     inkscape:current-layer="svg6"
     inkscape:window-maximized="1"
     inkscape:window-y="-8"
     inkscape:window-x="-8"
     inkscape:cy="10.324378"
     inkscape:cx="9.8339525"
     inkscape:zoom="50.675986"
     showgrid="false"
     id="namedview8"
     inkscape:window-height="1027"
     inkscape:window-width="1920"
     inkscape:pageshadow="2"
     inkscape:pageopacity="0"
     guidetolerance="10"
     gridtolerance="10"
     objecttolerance="10"
     borderopacity="1"
     bordercolor="#666666"
     pagecolor="#ffffff" />
  <path
     id="path2"
     fill="none"
     d="M0 0h24v24H0z" />
  <path
     id="path4"
     d="M17 7H7c-2.76 0-5 2.24-5 5s2.24 5 5 5h10c2.76 0 5-2.24 5-5s-2.24-5-5-5zm0 8c-1.66 0-3-1.34-3-3s1.34-3 3-3 3 1.34 3 3-1.34 3-3 3z" />
  <path
     id="path845"
     d="M 16.511935,14.945605 C 15.890842,14.835656 15.337698,14.547699 14.892703,14.102665 14.502292,13.712219 14.250398,13.266296 14.10021,12.699733 14.03892,12.468524 14.029385,12.374329 14.029385,12 c 0,-0.374329 0.0095,-0.468524 0.07083,-0.699733 0.150188,-0.566563 0.402082,-1.012485 0.792493,-1.4029321 0.381363,-0.3813972 0.838832,-0.6456547 1.366357,-0.7892772 0.246715,-0.06717 0.324418,-0.075156 0.736289,-0.075667 0.410496,-5.102e-4 0.490075,0.00739 0.733321,0.072803 0.667926,0.1796147 1.244178,0.5616662 1.640526,1.0876603 1.026191,1.361859 0.732667,3.257996 -0.657956,4.250324 -0.247628,0.176703 -0.662985,0.366246 -0.98257,0.448382 -0.342062,0.08791 -0.888351,0.112178 -1.216735,0.05405 z"
     style="opacity:0.98;fill:#00bc87;stroke-width:0.027907;fill-opacity:1" />
  <path
     id="path847"
     d="M 6.544186,16.963916 C 4.2521876,16.74591 2.3869065,14.964121 2.0607639,12.681177 c -0.045651,-0.319552 -0.045651,-1.042802 0,-1.362354 C 2.3901177,9.0134008 4.2496539,7.2530089 6.5860465,7.0348135 7.0160221,6.9946581 16.966575,6.9930241 17.4,7.0330377 c 0.902423,0.083311 1.77328,0.4020635 2.497674,0.9142031 0.324407,0.2293518 0.905853,0.8049962 1.124125,1.1129068 0.486904,0.6868647 0.803912,1.4671474 0.917642,2.2586754 0.05213,0.362781 0.0446,1.079056 -0.01519,1.444565 -0.129341,0.790805 -0.425304,1.504281 -0.902879,2.176563 -0.21812,0.307048 -0.799982,0.883472 -1.123773,1.113271 -0.710535,0.504278 -1.59475,0.82895 -2.48365,0.911964 -0.389875,0.03641 -10.4860159,0.03523 -10.869767,-0.0013 z m 11.07907,-2.016096 c 1.133725,-0.248942 1.994198,-1.069402 2.295322,-2.188588 0.06547,-0.243329 0.07288,-0.320498 0.07288,-0.759232 0,-0.438734 -0.0074,-0.515903 -0.07288,-0.759232 -0.44695,-1.6611767 -2.12605,-2.6060283 -3.779622,-2.1268421 -0.601186,0.174217 -1.161706,0.5618567 -1.550265,1.0721211 -0.171836,0.225657 -0.419169,0.727628 -0.494325,1.003248 -0.136906,0.502076 -0.136906,1.119334 0,1.62141 0.07516,0.27562 0.322489,0.777591 0.494325,1.003248 0.475266,0.624129 1.192512,1.049564 1.9741,1.170939 0.2299,0.0357 0.82355,0.01495 1.060465,-0.03707 z"
     style="opacity:0.98;fill:#dcdcdc;fill-opacity:0;stroke-width:0.027907" />
  <path
     id="path849"
     d="M 6.5793902,16.972258 C 5.6353393,16.888438 4.7632523,16.551008 3.9788443,15.966049 3.7332754,15.78292 3.2155721,15.265379 3.0316446,15.019146 2.5354758,14.354902 2.2215617,13.63191 2.0756463,12.817337 2.0355211,12.593338 2.0302362,12.500301 2.0298751,12.011568 2.0294218,11.397992 2.0469345,11.240027 2.167701,10.768376 2.6418416,8.9166294 4.1496055,7.4830786 6.0155759,7.1098954 c 0.4729009,-0.094577 0.2258231,-0.09083 5.9890301,-0.09083 5.043136,0 5.452561,0.00246 5.658474,0.033954 1.167454,0.1785784 2.151302,0.6808291 2.934296,1.4979471 0.726287,0.7579385 1.185293,1.6989805 1.346265,2.7600725 0.04326,0.285136 0.04874,1.024273 0.0097,1.302392 -0.08004,0.569685 -0.240501,1.098498 -0.47975,1.581037 -0.789229,1.591797 -2.307333,2.625625 -4.081787,2.779695 -0.278897,0.02422 -10.5385491,0.02241 -10.8123828,-0.0019 z M 17.668038,14.935692 c 0.769549,-0.183509 1.412045,-0.62619 1.838214,-1.266534 0.66245,-0.99537 0.668836,-2.314251 0.01605,-3.31518 C 18.773843,9.20635 17.349666,8.7144902 16.0372,9.1503489 c -0.467629,0.1552956 -0.85862,0.4048347 -1.212629,0.7739275 -0.418826,0.4366716 -0.68808,0.9721576 -0.790658,1.5724436 -0.05257,0.307626 -0.04279,0.843239 0.02063,1.130412 0.131159,0.593886 0.391466,1.068776 0.820178,1.496294 0.452854,0.451593 0.973502,0.726416 1.589591,0.839065 0.30847,0.0564 0.91108,0.04299 1.203726,-0.0268 z"
     style="opacity:0.98;fill:#dcdcdc;fill-opacity:0.98393571;stroke-width:0.0197332" />
</svg>
