<svg xmlns="http://www.w3.org/2000/svg" width="24" height="24" viewBox="0 0 24 24"><defs><style>.a{fill:none;}.b{fill:#fff;}</style></defs><path class="a" d="M0,0H24V24H0Z"/><path class="b" d="M12,6a2,2,0,0,0,2-2,1.9,1.9,0,0,0-.29-1.03L12,0,10.29,2.97A1.9,1.9,0,0,0,10,4,2.006,2.006,0,0,0,12,6Zm4.6,9.99-1.07-1.07-1.08,1.07a3.543,3.543,0,0,1-4.89,0L8.49,14.92,7.4,15.99A3.435,3.435,0,0,1,4.96,17,3.474,3.474,0,0,1,3,16.39V21a1,1,0,0,0,1,1H20a1,1,0,0,0,1-1V16.39a3.474,3.474,0,0,1-1.96.61A3.435,3.435,0,0,1,16.6,15.99ZM18,9H13V7H11V9H6a3,3,0,0,0-3,3v1.54A1.963,1.963,0,0,0,4.96,15.5a1.919,1.919,0,0,0,1.38-.57L8.48,12.8l2.13,2.13a2.006,2.006,0,0,0,2.77,0l2.14-2.13,2.13,2.13a1.936,1.936,0,0,0,1.38.57,1.963,1.963,0,0,0,1.96-1.96V12A2.981,2.981,0,0,0,18,9Z"/></svg>