<?xml version="1.0" encoding="UTF-8" standalone="no"?>
<svg
   xmlns:dc="http://purl.org/dc/elements/1.1/"
   xmlns:cc="http://creativecommons.org/ns#"
   xmlns:rdf="http://www.w3.org/1999/02/22-rdf-syntax-ns#"
   xmlns:svg="http://www.w3.org/2000/svg"
   xmlns="http://www.w3.org/2000/svg"
   xmlns:sodipodi="http://sodipodi.sourceforge.net/DTD/sodipodi-0.dtd"
   xmlns:inkscape="http://www.inkscape.org/namespaces/inkscape"
   height="24"
   viewBox="0 0 24 24"
   width="24"
   version="1.1"
   id="svg6"
   sodipodi:docname="toggle_on — копия.svg"
   inkscape:version="1.0 (4035a4fb49, 2020-05-01)">
  <metadata
     id="metadata12">
    <rdf:RDF>
      <cc:Work
         rdf:about="">
        <dc:format>image/svg+xml</dc:format>
        <dc:type
           rdf:resource="http://purl.org/dc/dcmitype/StillImage" />
      </cc:Work>
    </rdf:RDF>
  </metadata>
  <defs
     id="defs10" />
  <sodipodi:namedview
     inkscape:document-rotation="0"
     pagecolor="#ffffff"
     bordercolor="#666666"
     borderopacity="1"
     objecttolerance="10"
     gridtolerance="10"
     guidetolerance="10"
     inkscape:pageopacity="0"
     inkscape:pageshadow="2"
     inkscape:window-width="1920"
     inkscape:window-height="1027"
     id="namedview8"
     showgrid="false"
     inkscape:zoom="50.675986"
     inkscape:cx="9.8339525"
     inkscape:cy="10.324378"
     inkscape:window-x="-8"
     inkscape:window-y="-8"
     inkscape:window-maximized="1"
     inkscape:current-layer="svg6" />
  <path
     d="M 24,0 H 0 v 24 h 24 z"
     fill="none"
     id="path2" />
  <path
     d="m 7,7 h 10 c 2.76,0 5,2.24 5,5 0,2.76 -2.24,5 -5,5 H 7 C 4.24,17 2,14.76 2,12 2,9.24 4.24,7 7,7 Z m 0,8 c 1.66,0 3,-1.34 3,-3 0,-1.66 -1.34,-3 -3,-3 -1.66,0 -3,1.34 -3,3 0,1.66 1.34,3 3,3 z"
     id="path4" />
  <path
     style="opacity:0.98;fill:#00bc87;fill-opacity:1;stroke-width:0.027907"
     d="M 7.488065,14.945605 C 8.109158,14.835656 8.662302,14.547699 9.107297,14.102665 9.497708,13.712219 9.749602,13.266296 9.89979,12.699733 9.96108,12.468524 9.970615,12.374329 9.970615,12 c 0,-0.374329 -0.0095,-0.468524 -0.07083,-0.699733 C 9.749597,10.733704 9.497703,10.287782 9.107292,9.8973349 8.725929,9.5159377 8.26846,9.2516802 7.740935,9.1080577 7.49422,9.0408877 7.416517,9.0329017 7.004646,9.0323907 6.59415,9.0318805 6.514571,9.0397807 6.271325,9.1051937 5.603399,9.2848084 5.027147,9.6668599 4.630799,10.192854 c -1.026191,1.361859 -0.732667,3.257996 0.657956,4.250324 0.247628,0.176703 0.662985,0.366246 0.98257,0.448382 0.342062,0.08791 0.888351,0.112178 1.216735,0.05405 z"
     id="path845" />
  <path
     style="opacity:0.98;fill:#dcdcdc;fill-opacity:0;stroke-width:0.027907"
     d="m 17.455814,16.963916 c 2.291998,-0.218006 4.15728,-1.999795 4.483422,-4.282739 0.04565,-0.319552 0.04565,-1.042802 0,-1.362354 C 21.609882,9.0134008 19.750346,7.2530089 17.413953,7.0348135 16.983978,6.9946581 7.033425,6.9930241 6.6,7.0330377 5.697577,7.1163487 4.82672,7.4351012 4.102326,7.9472408 3.777919,8.1765926 3.196473,8.752237 2.978201,9.0601476 2.491297,9.7470123 2.174289,10.527295 2.060559,11.318823 c -0.05213,0.362781 -0.0446,1.079056 0.01519,1.444565 0.129341,0.790805 0.425304,1.504281 0.902879,2.176563 0.21812,0.307048 0.799982,0.883472 1.123773,1.113271 0.710535,0.504278 1.59475,0.82895 2.48365,0.911964 0.389875,0.03641 10.486016,0.03523 10.869767,-0.0013 z M 6.376744,14.94782 C 5.243019,14.698878 4.382546,13.878418 4.081422,12.759232 4.015952,12.515903 4.008542,12.438734 4.008542,12 c 0,-0.438734 0.0074,-0.515903 0.07288,-0.759232 0.44695,-1.6611767 2.12605,-2.6060283 3.779622,-2.1268421 0.601186,0.174217 1.161706,0.5618567 1.550265,1.0721211 0.171836,0.225657 0.419169,0.727628 0.494325,1.003248 0.136906,0.502076 0.136906,1.119334 0,1.62141 -0.07516,0.27562 -0.322489,0.777591 -0.494325,1.003248 -0.475266,0.624129 -1.192512,1.049564 -1.9741,1.170939 -0.2299,0.0357 -0.82355,0.01495 -1.060465,-0.03707 z"
     id="path847" />
  <path
     style="opacity:0.98;fill:#dcdcdc;fill-opacity:0.983936;stroke-width:0.0197332"
     d="m 17.42061,16.972258 c 0.944051,-0.08382 1.816138,-0.42125 2.600546,-1.006209 0.245569,-0.183129 0.763272,-0.70067 0.947199,-0.946903 0.496169,-0.664244 0.810083,-1.387236 0.955999,-2.201809 0.04012,-0.223999 0.04541,-0.317036 0.04577,-0.805769 4.53e-4,-0.613576 -0.01706,-0.771541 -0.137826,-1.243192 -0.474141,-1.8517466 -1.981905,-3.2852974 -3.847875,-3.6584806 -0.472901,-0.094577 -0.225823,-0.09083 -5.98903,-0.09083 -5.043136,0 -5.452561,0.00246 -5.658474,0.033954 C 5.169466,7.2315978 4.185618,7.7338485 3.402624,8.5509665 2.676337,9.308905 2.217331,10.249947 2.056359,11.311039 c -0.04326,0.285136 -0.04874,1.024273 -0.0097,1.302392 0.08004,0.569685 0.240501,1.098498 0.47975,1.581037 0.789229,1.591797 2.307333,2.625625 4.081787,2.779695 0.278897,0.02422 10.538549,0.02241 10.812383,-0.0019 z M 6.331962,14.935692 C 5.562413,14.752183 4.919917,14.309502 4.493748,13.669158 3.831298,12.673788 3.824912,11.354907 4.477698,10.353978 5.226157,9.20635 6.650334,8.7144902 7.9628,9.1503489 c 0.467629,0.1552956 0.85862,0.4048347 1.212629,0.7739275 0.418826,0.4366716 0.68808,0.9721576 0.790658,1.5724436 0.05257,0.307626 0.04279,0.843239 -0.02063,1.130412 -0.131159,0.593886 -0.391466,1.068776 -0.820178,1.496294 -0.452854,0.451593 -0.973502,0.726416 -1.589591,0.839065 -0.30847,0.0564 -0.91108,0.04299 -1.203726,-0.0268 z"
     id="path849" />
</svg>
