<svg xmlns="http://www.w3.org/2000/svg" width="24" height="24" viewBox="0 0 24 24"><defs><style>.a{fill:none;}.b{fill:#d00090;}</style></defs><rect class="a" width="24" height="24"/><circle class="b" cx="2" cy="2" r="2" transform="translate(14.5 0.38)"/><path class="b" d="M24,11.88V7.18L18.95,5.04a2.134,2.134,0,0,0-2.65.84h0l-1,1.6A4.845,4.845,0,0,1,11.89,9.8l.06.06a3.984,3.984,0,0,0,2.46,1.17A7.173,7.173,0,0,0,16.5,9.39l.6,3-1.16,1.1-.94.89v7.5h2v-6l2.1-2,1.8,8H23l-2.18-11-.62-3.1,1.8.7v3.4h2Z"/><path class="b" d="M10.29,8.09a1.951,1.951,0,0,0,.72.29,2.45,2.45,0,0,0,.38.04,2.089,2.089,0,0,0,.75-.15,1.911,1.911,0,0,0,.66-.44,2.008,2.008,0,0,0,.55-1.8A1.933,1.933,0,0,0,12.8,5a2.063,2.063,0,0,0-.66-.44,1.577,1.577,0,0,0-.37-.11,2.45,2.45,0,0,0-.38-.04,2.068,2.068,0,0,0-.35.03,1.909,1.909,0,0,0-.41.11A2.369,2.369,0,0,0,9.98,5a1.933,1.933,0,0,0-.55,1.03,2.008,2.008,0,0,0,.55,1.8A1.942,1.942,0,0,0,10.29,8.09Z"/><path class="b" d="M11.24,10.56l-2-2a2.513,2.513,0,0,0-.31-.26,1.931,1.931,0,0,0-.72-.28,1.637,1.637,0,0,0-.38-.04,1.993,1.993,0,0,0-1.41.59L3.08,11.91a1.993,1.993,0,0,0-.58,1.54,1.54,1.54,0,0,0,.11.55l1.07,2.95L.05,20.58,1.46,22,5.7,17.76V15.54L7,16.75v5.13H9v-6L6.88,13.76,9.24,11.4l.71.71h0a7.007,7.007,0,0,0,5.03,2.04l-.14-2.07A5.064,5.064,0,0,1,11.24,10.56Z"/></svg>